<mxfile host="Electron" modified="2024-05-07T13:52:11.694Z" agent="Mozilla/5.0 (Windows NT 10.0; Win64; x64) AppleWebKit/537.36 (KHTML, like Gecko) draw.io/21.6.8 Chrome/114.0.5735.289 Electron/25.5.0 Safari/537.36" etag="1HW3nwglhLuiSJKu9XD7" version="21.6.8" type="device" pages="2">
  <diagram name="Page-1" id="3H7OaV60wJp-bXhk3d5L">
    <mxGraphModel dx="2300" dy="1190" grid="1" gridSize="10" guides="1" tooltips="1" connect="1" arrows="1" fold="1" page="1" pageScale="1" pageWidth="1200" pageHeight="1600" math="0" shadow="0">
      <root>
        <mxCell id="0" />
        <mxCell id="1" parent="0" />
        <mxCell id="IFBGEIz0V8THFzAzhXo0-36" value="" style="rounded=0;whiteSpace=wrap;html=1;" parent="1" vertex="1">
          <mxGeometry x="260" y="240" width="130" height="420" as="geometry" />
        </mxCell>
        <mxCell id="IFBGEIz0V8THFzAzhXo0-3" value="" style="edgeStyle=orthogonalEdgeStyle;rounded=0;orthogonalLoop=1;jettySize=auto;html=1;" parent="1" source="IFBGEIz0V8THFzAzhXo0-1" target="IFBGEIz0V8THFzAzhXo0-2" edge="1">
          <mxGeometry relative="1" as="geometry" />
        </mxCell>
        <mxCell id="IFBGEIz0V8THFzAzhXo0-1" value="Image" style="rounded=0;whiteSpace=wrap;html=1;" parent="1" vertex="1">
          <mxGeometry x="540" y="70" width="120" height="60" as="geometry" />
        </mxCell>
        <mxCell id="IFBGEIz0V8THFzAzhXo0-16" style="edgeStyle=orthogonalEdgeStyle;rounded=0;orthogonalLoop=1;jettySize=auto;html=1;entryX=0.5;entryY=0;entryDx=0;entryDy=0;" parent="1" source="IFBGEIz0V8THFzAzhXo0-2" target="IFBGEIz0V8THFzAzhXo0-11" edge="1">
          <mxGeometry relative="1" as="geometry" />
        </mxCell>
        <mxCell id="IFBGEIz0V8THFzAzhXo0-21" style="edgeStyle=orthogonalEdgeStyle;rounded=0;orthogonalLoop=1;jettySize=auto;html=1;entryX=1;entryY=0.5;entryDx=0;entryDy=0;entryPerimeter=0;" parent="1" source="IFBGEIz0V8THFzAzhXo0-2" target="IFBGEIz0V8THFzAzhXo0-15" edge="1">
          <mxGeometry relative="1" as="geometry" />
        </mxCell>
        <mxCell id="IFBGEIz0V8THFzAzhXo0-26" style="edgeStyle=orthogonalEdgeStyle;rounded=0;orthogonalLoop=1;jettySize=auto;html=1;entryX=1;entryY=0.5;entryDx=0;entryDy=0;entryPerimeter=0;" parent="1" source="IFBGEIz0V8THFzAzhXo0-2" target="IFBGEIz0V8THFzAzhXo0-25" edge="1">
          <mxGeometry relative="1" as="geometry" />
        </mxCell>
        <mxCell id="IFBGEIz0V8THFzAzhXo0-35" style="edgeStyle=orthogonalEdgeStyle;rounded=0;orthogonalLoop=1;jettySize=auto;html=1;entryX=1;entryY=0.5;entryDx=0;entryDy=0;entryPerimeter=0;" parent="1" source="IFBGEIz0V8THFzAzhXo0-2" target="IFBGEIz0V8THFzAzhXo0-31" edge="1">
          <mxGeometry relative="1" as="geometry" />
        </mxCell>
        <mxCell id="IFBGEIz0V8THFzAzhXo0-2" value="Description" style="whiteSpace=wrap;html=1;rounded=0;" parent="1" vertex="1">
          <mxGeometry x="540" y="180" width="120" height="60" as="geometry" />
        </mxCell>
        <mxCell id="IFBGEIz0V8THFzAzhXo0-20" style="edgeStyle=orthogonalEdgeStyle;rounded=0;orthogonalLoop=1;jettySize=auto;html=1;" parent="1" source="IFBGEIz0V8THFzAzhXo0-11" edge="1">
          <mxGeometry relative="1" as="geometry">
            <mxPoint x="350" y="330" as="targetPoint" />
          </mxGeometry>
        </mxCell>
        <mxCell id="IFBGEIz0V8THFzAzhXo0-23" value="" style="edgeStyle=orthogonalEdgeStyle;rounded=0;orthogonalLoop=1;jettySize=auto;html=1;" parent="1" source="IFBGEIz0V8THFzAzhXo0-11" target="IFBGEIz0V8THFzAzhXo0-22" edge="1">
          <mxGeometry relative="1" as="geometry" />
        </mxCell>
        <mxCell id="IFBGEIz0V8THFzAzhXo0-11" value="Details" style="whiteSpace=wrap;html=1;rounded=0;" parent="1" vertex="1">
          <mxGeometry x="540" y="300" width="120" height="60" as="geometry" />
        </mxCell>
        <mxCell id="IFBGEIz0V8THFzAzhXo0-19" value="Dynamic Few Shot" style="edgeStyle=orthogonalEdgeStyle;rounded=0;orthogonalLoop=1;jettySize=auto;html=1;entryX=0;entryY=0.5;entryDx=0;entryDy=0;" parent="1" source="IFBGEIz0V8THFzAzhXo0-15" target="IFBGEIz0V8THFzAzhXo0-11" edge="1">
          <mxGeometry relative="1" as="geometry" />
        </mxCell>
        <mxCell id="IFBGEIz0V8THFzAzhXo0-15" value="" style="shape=cylinder3;whiteSpace=wrap;html=1;boundedLbl=1;backgroundOutline=1;size=15;" parent="1" vertex="1">
          <mxGeometry x="290" y="290" width="60" height="80" as="geometry" />
        </mxCell>
        <mxCell id="IFBGEIz0V8THFzAzhXo0-27" style="edgeStyle=orthogonalEdgeStyle;rounded=0;orthogonalLoop=1;jettySize=auto;html=1;" parent="1" source="IFBGEIz0V8THFzAzhXo0-22" target="IFBGEIz0V8THFzAzhXo0-25" edge="1">
          <mxGeometry relative="1" as="geometry" />
        </mxCell>
        <mxCell id="IFBGEIz0V8THFzAzhXo0-30" value="" style="edgeStyle=orthogonalEdgeStyle;rounded=0;orthogonalLoop=1;jettySize=auto;html=1;" parent="1" source="IFBGEIz0V8THFzAzhXo0-22" target="IFBGEIz0V8THFzAzhXo0-29" edge="1">
          <mxGeometry relative="1" as="geometry" />
        </mxCell>
        <mxCell id="IFBGEIz0V8THFzAzhXo0-39" value="" style="edgeStyle=orthogonalEdgeStyle;rounded=0;orthogonalLoop=1;jettySize=auto;html=1;" parent="1" source="IFBGEIz0V8THFzAzhXo0-22" target="IFBGEIz0V8THFzAzhXo0-38" edge="1">
          <mxGeometry relative="1" as="geometry" />
        </mxCell>
        <mxCell id="IFBGEIz0V8THFzAzhXo0-22" value="IAC" style="whiteSpace=wrap;html=1;rounded=0;" parent="1" vertex="1">
          <mxGeometry x="540" y="440" width="120" height="60" as="geometry" />
        </mxCell>
        <mxCell id="IFBGEIz0V8THFzAzhXo0-28" value="Dynamic Few Shot" style="edgeStyle=orthogonalEdgeStyle;rounded=0;orthogonalLoop=1;jettySize=auto;html=1;entryX=0;entryY=0.5;entryDx=0;entryDy=0;" parent="1" source="IFBGEIz0V8THFzAzhXo0-25" target="IFBGEIz0V8THFzAzhXo0-22" edge="1">
          <mxGeometry relative="1" as="geometry" />
        </mxCell>
        <mxCell id="IFBGEIz0V8THFzAzhXo0-25" value="" style="shape=cylinder3;whiteSpace=wrap;html=1;boundedLbl=1;backgroundOutline=1;size=15;" parent="1" vertex="1">
          <mxGeometry x="290" y="430" width="60" height="80" as="geometry" />
        </mxCell>
        <mxCell id="IFBGEIz0V8THFzAzhXo0-34" style="edgeStyle=orthogonalEdgeStyle;rounded=0;orthogonalLoop=1;jettySize=auto;html=1;entryX=1;entryY=0.5;entryDx=0;entryDy=0;entryPerimeter=0;" parent="1" source="IFBGEIz0V8THFzAzhXo0-29" target="IFBGEIz0V8THFzAzhXo0-31" edge="1">
          <mxGeometry relative="1" as="geometry" />
        </mxCell>
        <mxCell id="IFBGEIz0V8THFzAzhXo0-29" value="Diagram&amp;nbsp;" style="whiteSpace=wrap;html=1;rounded=0;" parent="1" vertex="1">
          <mxGeometry x="540" y="580" width="120" height="60" as="geometry" />
        </mxCell>
        <mxCell id="IFBGEIz0V8THFzAzhXo0-43" value="Dynamic Few Shot" style="edgeStyle=orthogonalEdgeStyle;rounded=0;orthogonalLoop=1;jettySize=auto;html=1;" parent="1" source="IFBGEIz0V8THFzAzhXo0-31" target="IFBGEIz0V8THFzAzhXo0-29" edge="1">
          <mxGeometry relative="1" as="geometry" />
        </mxCell>
        <mxCell id="IFBGEIz0V8THFzAzhXo0-31" value="" style="shape=cylinder3;whiteSpace=wrap;html=1;boundedLbl=1;backgroundOutline=1;size=15;" parent="1" vertex="1">
          <mxGeometry x="290" y="570" width="60" height="80" as="geometry" />
        </mxCell>
        <mxCell id="IFBGEIz0V8THFzAzhXo0-37" value="Vector Store" style="text;html=1;align=center;verticalAlign=middle;resizable=0;points=[];autosize=1;strokeColor=none;fillColor=none;" parent="1" vertex="1">
          <mxGeometry x="278" y="240" width="90" height="30" as="geometry" />
        </mxCell>
        <mxCell id="IFBGEIz0V8THFzAzhXo0-40" style="edgeStyle=orthogonalEdgeStyle;rounded=0;orthogonalLoop=1;jettySize=auto;html=1;entryX=1;entryY=0.5;entryDx=0;entryDy=0;" parent="1" source="IFBGEIz0V8THFzAzhXo0-38" target="IFBGEIz0V8THFzAzhXo0-22" edge="1">
          <mxGeometry relative="1" as="geometry" />
        </mxCell>
        <mxCell id="IFBGEIz0V8THFzAzhXo0-38" value="Validation" style="ellipse;whiteSpace=wrap;html=1;rounded=0;" parent="1" vertex="1">
          <mxGeometry x="760" y="430" width="80" height="80" as="geometry" />
        </mxCell>
      </root>
    </mxGraphModel>
  </diagram>
  <diagram name="Validations" id="Lx9WOYPzfAv3dAlj_M03">
    <mxGraphModel dx="2300" dy="1190" grid="1" gridSize="10" guides="1" tooltips="1" connect="1" arrows="1" fold="1" page="1" pageScale="1" pageWidth="1200" pageHeight="1600" math="0" shadow="0">
      <root>
        <mxCell id="7OOzwF3DTI2tE4eMVqRe-0" />
        <mxCell id="7OOzwF3DTI2tE4eMVqRe-1" parent="7OOzwF3DTI2tE4eMVqRe-0" />
        <mxCell id="7OOzwF3DTI2tE4eMVqRe-2" value="" style="rounded=0;whiteSpace=wrap;html=1;" vertex="1" parent="7OOzwF3DTI2tE4eMVqRe-1">
          <mxGeometry x="260" y="240" width="130" height="420" as="geometry" />
        </mxCell>
        <mxCell id="7OOzwF3DTI2tE4eMVqRe-3" value="" style="edgeStyle=orthogonalEdgeStyle;rounded=0;orthogonalLoop=1;jettySize=auto;html=1;" edge="1" parent="7OOzwF3DTI2tE4eMVqRe-1" source="7OOzwF3DTI2tE4eMVqRe-4" target="7OOzwF3DTI2tE4eMVqRe-9">
          <mxGeometry relative="1" as="geometry" />
        </mxCell>
        <mxCell id="7OOzwF3DTI2tE4eMVqRe-4" value="Image" style="rounded=0;whiteSpace=wrap;html=1;" vertex="1" parent="7OOzwF3DTI2tE4eMVqRe-1">
          <mxGeometry x="540" y="70" width="120" height="60" as="geometry" />
        </mxCell>
        <mxCell id="7OOzwF3DTI2tE4eMVqRe-5" style="edgeStyle=orthogonalEdgeStyle;rounded=0;orthogonalLoop=1;jettySize=auto;html=1;entryX=0.5;entryY=0;entryDx=0;entryDy=0;" edge="1" parent="7OOzwF3DTI2tE4eMVqRe-1" source="7OOzwF3DTI2tE4eMVqRe-9" target="7OOzwF3DTI2tE4eMVqRe-12">
          <mxGeometry relative="1" as="geometry" />
        </mxCell>
        <mxCell id="7OOzwF3DTI2tE4eMVqRe-6" style="edgeStyle=orthogonalEdgeStyle;rounded=0;orthogonalLoop=1;jettySize=auto;html=1;entryX=1;entryY=0.5;entryDx=0;entryDy=0;entryPerimeter=0;" edge="1" parent="7OOzwF3DTI2tE4eMVqRe-1" source="7OOzwF3DTI2tE4eMVqRe-9" target="7OOzwF3DTI2tE4eMVqRe-14">
          <mxGeometry relative="1" as="geometry" />
        </mxCell>
        <mxCell id="7OOzwF3DTI2tE4eMVqRe-7" style="edgeStyle=orthogonalEdgeStyle;rounded=0;orthogonalLoop=1;jettySize=auto;html=1;entryX=1;entryY=0.5;entryDx=0;entryDy=0;entryPerimeter=0;" edge="1" parent="7OOzwF3DTI2tE4eMVqRe-1" source="7OOzwF3DTI2tE4eMVqRe-9" target="7OOzwF3DTI2tE4eMVqRe-20">
          <mxGeometry relative="1" as="geometry" />
        </mxCell>
        <mxCell id="7OOzwF3DTI2tE4eMVqRe-8" style="edgeStyle=orthogonalEdgeStyle;rounded=0;orthogonalLoop=1;jettySize=auto;html=1;entryX=1;entryY=0.5;entryDx=0;entryDy=0;entryPerimeter=0;" edge="1" parent="7OOzwF3DTI2tE4eMVqRe-1" source="7OOzwF3DTI2tE4eMVqRe-9" target="7OOzwF3DTI2tE4eMVqRe-24">
          <mxGeometry relative="1" as="geometry" />
        </mxCell>
        <mxCell id="7OOzwF3DTI2tE4eMVqRe-9" value="Description" style="whiteSpace=wrap;html=1;rounded=0;" vertex="1" parent="7OOzwF3DTI2tE4eMVqRe-1">
          <mxGeometry x="540" y="180" width="120" height="60" as="geometry" />
        </mxCell>
        <mxCell id="7OOzwF3DTI2tE4eMVqRe-10" style="edgeStyle=orthogonalEdgeStyle;rounded=0;orthogonalLoop=1;jettySize=auto;html=1;" edge="1" parent="7OOzwF3DTI2tE4eMVqRe-1" source="7OOzwF3DTI2tE4eMVqRe-12">
          <mxGeometry relative="1" as="geometry">
            <mxPoint x="350" y="330" as="targetPoint" />
          </mxGeometry>
        </mxCell>
        <mxCell id="7OOzwF3DTI2tE4eMVqRe-11" value="" style="edgeStyle=orthogonalEdgeStyle;rounded=0;orthogonalLoop=1;jettySize=auto;html=1;" edge="1" parent="7OOzwF3DTI2tE4eMVqRe-1" source="7OOzwF3DTI2tE4eMVqRe-12" target="7OOzwF3DTI2tE4eMVqRe-18">
          <mxGeometry relative="1" as="geometry" />
        </mxCell>
        <mxCell id="7OOzwF3DTI2tE4eMVqRe-12" value="Details" style="whiteSpace=wrap;html=1;rounded=0;" vertex="1" parent="7OOzwF3DTI2tE4eMVqRe-1">
          <mxGeometry x="540" y="300" width="120" height="60" as="geometry" />
        </mxCell>
        <mxCell id="7OOzwF3DTI2tE4eMVqRe-13" value="Dynamic Few Shot" style="edgeStyle=orthogonalEdgeStyle;rounded=0;orthogonalLoop=1;jettySize=auto;html=1;entryX=0;entryY=0.5;entryDx=0;entryDy=0;" edge="1" parent="7OOzwF3DTI2tE4eMVqRe-1" source="7OOzwF3DTI2tE4eMVqRe-14" target="7OOzwF3DTI2tE4eMVqRe-12">
          <mxGeometry relative="1" as="geometry" />
        </mxCell>
        <mxCell id="7OOzwF3DTI2tE4eMVqRe-14" value="" style="shape=cylinder3;whiteSpace=wrap;html=1;boundedLbl=1;backgroundOutline=1;size=15;" vertex="1" parent="7OOzwF3DTI2tE4eMVqRe-1">
          <mxGeometry x="290" y="290" width="60" height="80" as="geometry" />
        </mxCell>
        <mxCell id="7OOzwF3DTI2tE4eMVqRe-15" style="edgeStyle=orthogonalEdgeStyle;rounded=0;orthogonalLoop=1;jettySize=auto;html=1;" edge="1" parent="7OOzwF3DTI2tE4eMVqRe-1" source="7OOzwF3DTI2tE4eMVqRe-18" target="7OOzwF3DTI2tE4eMVqRe-20">
          <mxGeometry relative="1" as="geometry" />
        </mxCell>
        <mxCell id="7OOzwF3DTI2tE4eMVqRe-16" value="" style="edgeStyle=orthogonalEdgeStyle;rounded=0;orthogonalLoop=1;jettySize=auto;html=1;" edge="1" parent="7OOzwF3DTI2tE4eMVqRe-1" source="7OOzwF3DTI2tE4eMVqRe-18" target="7OOzwF3DTI2tE4eMVqRe-22">
          <mxGeometry relative="1" as="geometry" />
        </mxCell>
        <mxCell id="7OOzwF3DTI2tE4eMVqRe-17" value="" style="edgeStyle=orthogonalEdgeStyle;rounded=0;orthogonalLoop=1;jettySize=auto;html=1;" edge="1" parent="7OOzwF3DTI2tE4eMVqRe-1" source="7OOzwF3DTI2tE4eMVqRe-18" target="7OOzwF3DTI2tE4eMVqRe-27">
          <mxGeometry relative="1" as="geometry" />
        </mxCell>
        <mxCell id="bAslSZQpnwyLgH5XJ6JL-1" value="" style="edgeStyle=orthogonalEdgeStyle;rounded=0;orthogonalLoop=1;jettySize=auto;html=1;" edge="1" parent="7OOzwF3DTI2tE4eMVqRe-1" source="7OOzwF3DTI2tE4eMVqRe-18" target="bAslSZQpnwyLgH5XJ6JL-0">
          <mxGeometry relative="1" as="geometry" />
        </mxCell>
        <mxCell id="7OOzwF3DTI2tE4eMVqRe-18" value="IAC" style="whiteSpace=wrap;html=1;rounded=0;" vertex="1" parent="7OOzwF3DTI2tE4eMVqRe-1">
          <mxGeometry x="540" y="440" width="120" height="60" as="geometry" />
        </mxCell>
        <mxCell id="7OOzwF3DTI2tE4eMVqRe-19" value="Dynamic Few Shot" style="edgeStyle=orthogonalEdgeStyle;rounded=0;orthogonalLoop=1;jettySize=auto;html=1;entryX=0;entryY=0.5;entryDx=0;entryDy=0;" edge="1" parent="7OOzwF3DTI2tE4eMVqRe-1" source="7OOzwF3DTI2tE4eMVqRe-20" target="7OOzwF3DTI2tE4eMVqRe-18">
          <mxGeometry relative="1" as="geometry" />
        </mxCell>
        <mxCell id="7OOzwF3DTI2tE4eMVqRe-20" value="" style="shape=cylinder3;whiteSpace=wrap;html=1;boundedLbl=1;backgroundOutline=1;size=15;" vertex="1" parent="7OOzwF3DTI2tE4eMVqRe-1">
          <mxGeometry x="290" y="430" width="60" height="80" as="geometry" />
        </mxCell>
        <mxCell id="7OOzwF3DTI2tE4eMVqRe-21" style="edgeStyle=orthogonalEdgeStyle;rounded=0;orthogonalLoop=1;jettySize=auto;html=1;entryX=1;entryY=0.5;entryDx=0;entryDy=0;entryPerimeter=0;" edge="1" parent="7OOzwF3DTI2tE4eMVqRe-1" source="7OOzwF3DTI2tE4eMVqRe-22" target="7OOzwF3DTI2tE4eMVqRe-24">
          <mxGeometry relative="1" as="geometry" />
        </mxCell>
        <mxCell id="bAslSZQpnwyLgH5XJ6JL-4" value="" style="edgeStyle=orthogonalEdgeStyle;rounded=0;orthogonalLoop=1;jettySize=auto;html=1;" edge="1" parent="7OOzwF3DTI2tE4eMVqRe-1" source="7OOzwF3DTI2tE4eMVqRe-22" target="bAslSZQpnwyLgH5XJ6JL-3">
          <mxGeometry relative="1" as="geometry" />
        </mxCell>
        <mxCell id="bAslSZQpnwyLgH5XJ6JL-6" value="" style="edgeStyle=orthogonalEdgeStyle;rounded=0;orthogonalLoop=1;jettySize=auto;html=1;" edge="1" parent="7OOzwF3DTI2tE4eMVqRe-1" source="7OOzwF3DTI2tE4eMVqRe-22" target="bAslSZQpnwyLgH5XJ6JL-5">
          <mxGeometry relative="1" as="geometry" />
        </mxCell>
        <mxCell id="bAslSZQpnwyLgH5XJ6JL-8" value="" style="edgeStyle=orthogonalEdgeStyle;rounded=0;orthogonalLoop=1;jettySize=auto;html=1;" edge="1" parent="7OOzwF3DTI2tE4eMVqRe-1" source="7OOzwF3DTI2tE4eMVqRe-22" target="bAslSZQpnwyLgH5XJ6JL-7">
          <mxGeometry relative="1" as="geometry" />
        </mxCell>
        <mxCell id="7OOzwF3DTI2tE4eMVqRe-22" value="Diagram&amp;nbsp;" style="whiteSpace=wrap;html=1;rounded=0;" vertex="1" parent="7OOzwF3DTI2tE4eMVqRe-1">
          <mxGeometry x="540" y="580" width="120" height="60" as="geometry" />
        </mxCell>
        <mxCell id="7OOzwF3DTI2tE4eMVqRe-23" value="Dynamic Few Shot" style="edgeStyle=orthogonalEdgeStyle;rounded=0;orthogonalLoop=1;jettySize=auto;html=1;" edge="1" parent="7OOzwF3DTI2tE4eMVqRe-1" source="7OOzwF3DTI2tE4eMVqRe-24" target="7OOzwF3DTI2tE4eMVqRe-22">
          <mxGeometry relative="1" as="geometry" />
        </mxCell>
        <mxCell id="7OOzwF3DTI2tE4eMVqRe-24" value="" style="shape=cylinder3;whiteSpace=wrap;html=1;boundedLbl=1;backgroundOutline=1;size=15;" vertex="1" parent="7OOzwF3DTI2tE4eMVqRe-1">
          <mxGeometry x="290" y="570" width="60" height="80" as="geometry" />
        </mxCell>
        <mxCell id="7OOzwF3DTI2tE4eMVqRe-25" value="Vector Store" style="text;html=1;align=center;verticalAlign=middle;resizable=0;points=[];autosize=1;strokeColor=none;fillColor=none;" vertex="1" parent="7OOzwF3DTI2tE4eMVqRe-1">
          <mxGeometry x="278" y="240" width="90" height="30" as="geometry" />
        </mxCell>
        <mxCell id="7OOzwF3DTI2tE4eMVqRe-26" style="edgeStyle=orthogonalEdgeStyle;rounded=0;orthogonalLoop=1;jettySize=auto;html=1;entryX=1;entryY=0.5;entryDx=0;entryDy=0;" edge="1" parent="7OOzwF3DTI2tE4eMVqRe-1" source="7OOzwF3DTI2tE4eMVqRe-27" target="7OOzwF3DTI2tE4eMVqRe-18">
          <mxGeometry relative="1" as="geometry" />
        </mxCell>
        <mxCell id="bAslSZQpnwyLgH5XJ6JL-2" style="edgeStyle=orthogonalEdgeStyle;rounded=0;orthogonalLoop=1;jettySize=auto;html=1;" edge="1" parent="7OOzwF3DTI2tE4eMVqRe-1" source="7OOzwF3DTI2tE4eMVqRe-27">
          <mxGeometry relative="1" as="geometry">
            <mxPoint x="860" y="470" as="targetPoint" />
          </mxGeometry>
        </mxCell>
        <mxCell id="7OOzwF3DTI2tE4eMVqRe-27" value="Validation" style="ellipse;whiteSpace=wrap;html=1;rounded=0;" vertex="1" parent="7OOzwF3DTI2tE4eMVqRe-1">
          <mxGeometry x="970" y="430" width="80" height="80" as="geometry" />
        </mxCell>
        <mxCell id="bAslSZQpnwyLgH5XJ6JL-0" value="IAC Review&lt;br&gt;Add enviroment details/ best practices" style="whiteSpace=wrap;html=1;rounded=0;" vertex="1" parent="7OOzwF3DTI2tE4eMVqRe-1">
          <mxGeometry x="740" y="440" width="120" height="60" as="geometry" />
        </mxCell>
        <mxCell id="bAslSZQpnwyLgH5XJ6JL-3" value="Add Diagrams/Draw.IO Best practices/Libraires" style="whiteSpace=wrap;html=1;rounded=0;" vertex="1" parent="7OOzwF3DTI2tE4eMVqRe-1">
          <mxGeometry x="740" y="580" width="120" height="60" as="geometry" />
        </mxCell>
        <mxCell id="bAslSZQpnwyLgH5XJ6JL-5" value="CF Template" style="whiteSpace=wrap;html=1;rounded=0;" vertex="1" parent="7OOzwF3DTI2tE4eMVqRe-1">
          <mxGeometry x="420" y="720" width="120" height="60" as="geometry" />
        </mxCell>
        <mxCell id="bAslSZQpnwyLgH5XJ6JL-7" value="Diagram Image/File" style="whiteSpace=wrap;html=1;rounded=0;" vertex="1" parent="7OOzwF3DTI2tE4eMVqRe-1">
          <mxGeometry x="640" y="720" width="120" height="60" as="geometry" />
        </mxCell>
      </root>
    </mxGraphModel>
  </diagram>
</mxfile>
